<?xml version="1.0" encoding="UTF-8" standalone="no"?><!DOCTYPE svg PUBLIC "-//W3C//DTD SVG 1.1//EN" "http://www.w3.org/Graphics/SVG/1.1/DTD/svg11.dtd"><svg width="100%" height="100%" viewBox="0 0 300 150" version="1.1" xmlns="http://www.w3.org/2000/svg" xmlns:xlink="http://www.w3.org/1999/xlink" xml:space="preserve" style="fill-rule:evenodd;clip-rule:evenodd;stroke-linejoin:round;stroke-miterlimit:1.41421;"><clipPath id="_clip1"><rect id="logotype" x="0" y="0" width="300" height="150"/></clipPath><g clip-path="url(#_clip1)"><g id="background"><g><path d="M300,6c0,-1.591 -0.632,-3.117 -1.757,-4.243c-1.126,-1.125 -2.652,-1.757 -4.243,-1.757c-38.423,0 -249.577,0 -288,0c-1.591,0 -3.117,0.632 -4.243,1.757c-1.125,1.126 -1.757,2.652 -1.757,4.243c0,24.121 0,113.879 0,138c0,1.591 0.632,3.117 1.757,4.243c1.126,1.125 2.652,1.757 4.243,1.757c38.423,0 249.577,0 288,0c1.591,0 3.117,-0.632 4.243,-1.757c1.125,-1.126 1.757,-2.652 1.757,-4.243c0,-24.121 0,-113.879 0,-138Z" style="fill:#fff;"/><path d="M294,0l0.075,0l0.074,0.002l0.074,0.002l0.075,0.003l0.074,0.005l0.074,0.005l0.073,0.006l0.074,0.006l0.074,0.008l0.073,0.009l0.073,0.009l0.073,0.011l0.073,0.011l0.072,0.012l0.073,0.013l0.072,0.014l0.072,0.015l0.072,0.016l0.071,0.016l0.071,0.018l0.072,0.018l0.07,0.019l0.071,0.02l0.07,0.021l0.07,0.022l0.07,0.023l0.069,0.023l0.069,0.024l0.069,0.025l0.068,0.026l0.068,0.027l0.068,0.028l0.068,0.028l0.067,0.029l0.066,0.03l0.067,0.031l0.066,0.032l0.065,0.032l0.066,0.034l0.064,0.034l0.065,0.035l0.064,0.035l0.063,0.037l0.064,0.037l0.062,0.038l0.063,0.039l0.061,0.04l0.062,0.04l0.061,0.041l0.06,0.042l0.06,0.043l0.06,0.043l0.059,0.045l0.058,0.045l0.058,0.045l0.058,0.047l0.056,0.047l0.057,0.048l0.056,0.049l0.055,0.049l0.055,0.05l0.054,0.051l0.054,0.052l0.053,0.052l0.052,0.053l0.052,0.054l0.051,0.054l0.05,0.055l0.049,0.055l0.049,0.056l0.048,0.057l0.047,0.056l0.047,0.058l0.045,0.058l0.045,0.058l0.045,0.059l0.043,0.06l0.043,0.06l0.042,0.06l0.041,0.061l0.04,0.062l0.04,0.061l0.039,0.063l0.038,0.062l0.037,0.064l0.037,0.063l0.035,0.064l0.035,0.065l0.034,0.064l0.034,0.066l0.032,0.065l0.032,0.066l0.031,0.067l0.03,0.066l0.029,0.067l0.028,0.068l0.028,0.068l0.027,0.068l0.026,0.068l0.025,0.069l0.024,0.069l0.023,0.069l0.023,0.07l0.022,0.07l0.021,0.07l0.02,0.071l0.019,0.07l0.018,0.071l0.017,0.072l0.017,0.071l0.016,0.072l0.015,0.072l0.014,0.072l0.013,0.073l0.012,0.072l0.011,0.073l0.011,0.073l0.009,0.073l0.009,0.073l0.008,0.074l0.006,0.074l0.006,0.073l0.005,0.074l0.005,0.074l0.003,0.075l0.002,0.074l0.002,0.074l0,0.075l0,138l0,0.075l-0.002,0.074l-0.002,0.074l-0.003,0.075l-0.005,0.074l-0.005,0.074l-0.006,0.073l-0.006,0.074l-0.008,0.074l-0.009,0.073l-0.009,0.073l-0.011,0.073l-0.011,0.073l-0.012,0.072l-0.013,0.073l-0.014,0.072l-0.015,0.072l-0.016,0.072l-0.017,0.071l-0.017,0.072l-0.018,0.071l-0.019,0.07l-0.02,0.071l-0.021,0.07l-0.022,0.07l-0.023,0.07l-0.023,0.069l-0.024,0.069l-0.025,0.069l-0.026,0.068l-0.027,0.068l-0.028,0.068l-0.028,0.068l-0.029,0.067l-0.03,0.066l-0.031,0.067l-0.032,0.066l-0.032,0.065l-0.034,0.066l-0.034,0.064l-0.035,0.065l-0.035,0.064l-0.037,0.063l-0.037,0.064l-0.038,0.062l-0.039,0.063l-0.04,0.061l-0.04,0.062l-0.041,0.061l-0.042,0.06l-0.043,0.06l-0.043,0.06l-0.045,0.059l-0.045,0.058l-0.045,0.058l-0.047,0.058l-0.047,0.056l-0.048,0.057l-0.049,0.056l-0.049,0.055l-0.05,0.055l-0.051,0.054l-0.052,0.054l-0.052,0.053l-0.053,0.052l-0.054,0.052l-0.054,0.051l-0.055,0.05l-0.055,0.049l-0.056,0.049l-0.057,0.048l-0.056,0.047l-0.058,0.047l-0.058,0.045l-0.058,0.045l-0.059,0.045l-0.06,0.043l-0.06,0.043l-0.06,0.042l-0.061,0.041l-0.062,0.04l-0.061,0.04l-0.063,0.039l-0.062,0.038l-0.064,0.037l-0.063,0.037l-0.064,0.035l-0.065,0.035l-0.064,0.034l-0.066,0.034l-0.065,0.032l-0.066,0.032l-0.067,0.031l-0.066,0.03l-0.067,0.029l-0.068,0.028l-0.068,0.028l-0.068,0.027l-0.068,0.026l-0.069,0.025l-0.069,0.024l-0.069,0.023l-0.07,0.023l-0.07,0.022l-0.07,0.021l-0.071,0.02l-0.07,0.019l-0.072,0.018l-0.071,0.018l-0.071,0.016l-0.072,0.016l-0.072,0.015l-0.072,0.014l-0.073,0.013l-0.072,0.012l-0.073,0.011l-0.073,0.011l-0.073,0.009l-0.073,0.009l-0.074,0.008l-0.074,0.006l-0.073,0.006l-0.074,0.005l-0.074,0.005l-0.075,0.003l-0.074,0.002l-0.074,0.002l-0.075,0l-288,0l-0.075,0l-0.074,-0.002l-0.074,-0.002l-0.075,-0.003l-0.074,-0.005l-0.074,-0.005l-0.073,-0.006l-0.074,-0.006l-0.074,-0.008l-0.073,-0.009l-0.073,-0.009l-0.073,-0.011l-0.073,-0.011l-0.072,-0.012l-0.073,-0.013l-0.072,-0.014l-0.072,-0.015l-0.072,-0.016l-0.071,-0.016l-0.071,-0.018l-0.072,-0.018l-0.07,-0.019l-0.071,-0.02l-0.07,-0.021l-0.07,-0.022l-0.07,-0.023l-0.069,-0.023l-0.069,-0.024l-0.069,-0.025l-0.068,-0.026l-0.068,-0.027l-0.068,-0.028l-0.068,-0.028l-0.067,-0.029l-0.066,-0.03l-0.067,-0.031l-0.066,-0.032l-0.065,-0.032l-0.066,-0.034l-0.064,-0.034l-0.065,-0.035l-0.064,-0.035l-0.063,-0.037l-0.064,-0.037l-0.062,-0.038l-0.063,-0.039l-0.061,-0.04l-0.062,-0.04l-0.061,-0.041l-0.06,-0.042l-0.06,-0.043l-0.06,-0.043l-0.059,-0.045l-0.058,-0.045l-0.058,-0.045l-0.058,-0.047l-0.056,-0.047l-0.057,-0.048l-0.056,-0.049l-0.055,-0.049l-0.055,-0.05l-0.054,-0.051l-0.054,-0.052l-0.053,-0.052l-0.052,-0.053l-0.052,-0.054l-0.051,-0.054l-0.05,-0.055l-0.049,-0.055l-0.049,-0.056l-0.048,-0.057l-0.047,-0.056l-0.047,-0.058l-0.045,-0.058l-0.045,-0.058l-0.045,-0.059l-0.043,-0.06l-0.043,-0.06l-0.042,-0.06l-0.041,-0.061l-0.04,-0.062l-0.04,-0.061l-0.039,-0.063l-0.038,-0.062l-0.037,-0.064l-0.037,-0.063l-0.035,-0.064l-0.035,-0.065l-0.034,-0.064l-0.034,-0.066l-0.032,-0.065l-0.032,-0.066l-0.031,-0.067l-0.03,-0.066l-0.029,-0.067l-0.028,-0.068l-0.028,-0.068l-0.027,-0.068l-0.026,-0.068l-0.025,-0.069l-0.024,-0.069l-0.023,-0.069l-0.023,-0.07l-0.022,-0.07l-0.021,-0.07l-0.02,-0.071l-0.019,-0.07l-0.018,-0.071l-0.017,-0.072l-0.017,-0.071l-0.016,-0.072l-0.015,-0.072l-0.014,-0.072l-0.013,-0.073l-0.012,-0.072l-0.011,-0.073l-0.011,-0.073l-0.009,-0.073l-0.009,-0.073l-0.008,-0.074l-0.006,-0.074l-0.006,-0.073l-0.005,-0.074l-0.005,-0.074l-0.003,-0.075l-0.002,-0.074l-0.002,-0.074l0,-0.075l0,-138l0,-0.075l0.002,-0.074l0.002,-0.074l0.003,-0.075l0.005,-0.074l0.005,-0.074l0.006,-0.073l0.006,-0.074l0.008,-0.074l0.009,-0.073l0.009,-0.073l0.011,-0.073l0.011,-0.073l0.012,-0.072l0.013,-0.073l0.014,-0.072l0.015,-0.072l0.016,-0.072l0.017,-0.071l0.017,-0.072l0.018,-0.071l0.019,-0.07l0.02,-0.071l0.021,-0.07l0.022,-0.07l0.023,-0.07l0.023,-0.069l0.024,-0.069l0.025,-0.069l0.026,-0.068l0.027,-0.068l0.028,-0.068l0.028,-0.068l0.029,-0.067l0.03,-0.066l0.031,-0.067l0.032,-0.066l0.032,-0.065l0.034,-0.066l0.034,-0.064l0.035,-0.065l0.035,-0.064l0.037,-0.063l0.037,-0.064l0.038,-0.062l0.039,-0.063l0.04,-0.061l0.04,-0.062l0.041,-0.061l0.042,-0.06l0.043,-0.06l0.043,-0.06l0.045,-0.059l0.045,-0.058l0.045,-0.058l0.047,-0.058l0.047,-0.056l0.048,-0.057l0.049,-0.056l0.049,-0.055l0.05,-0.055l0.051,-0.054l0.052,-0.054l0.052,-0.053l0.053,-0.052l0.054,-0.052l0.054,-0.051l0.055,-0.05l0.055,-0.049l0.056,-0.049l0.057,-0.048l0.056,-0.047l0.058,-0.047l0.058,-0.045l0.058,-0.045l0.059,-0.045l0.06,-0.043l0.06,-0.043l0.06,-0.042l0.061,-0.041l0.062,-0.04l0.061,-0.04l0.063,-0.039l0.062,-0.038l0.064,-0.037l0.063,-0.037l0.064,-0.035l0.065,-0.035l0.064,-0.034l0.066,-0.034l0.065,-0.032l0.066,-0.032l0.067,-0.031l0.066,-0.03l0.067,-0.029l0.068,-0.028l0.068,-0.028l0.068,-0.027l0.068,-0.026l0.069,-0.025l0.069,-0.024l0.069,-0.023l0.07,-0.023l0.07,-0.022l0.07,-0.021l0.071,-0.02l0.07,-0.019l0.072,-0.018l0.071,-0.018l0.071,-0.016l0.072,-0.016l0.072,-0.015l0.072,-0.014l0.073,-0.013l0.072,-0.012l0.073,-0.011l0.073,-0.011l0.073,-0.009l0.073,-0.009l0.074,-0.008l0.074,-0.006l0.073,-0.006l0.074,-0.005l0.074,-0.005l0.075,-0.003l0.074,-0.002l0.074,-0.002l0.075,0l288,0ZM10,140l280,0l0,-130l-280,0l0,130Z" style="fill:#4281f3;"/></g></g><g id="text"><path d="M13.279,80.25c1.75,-1.5 3.172,-2.75 4.265,-3.75c1.094,-1 2.032,-1.914 2.813,-2.742c0.781,-0.828 1.492,-1.664 2.133,-2.508c0.64,-0.844 1.398,-1.844 2.273,-3c0.875,-1.156 1.938,-2.57 3.188,-4.242c1.25,-1.672 2.875,-3.758 4.875,-6.258c0.406,-0.562 0.859,-1.109 1.359,-1.641c0.5,-0.531 1.055,-1.007 1.664,-1.429c0.61,-0.422 1.281,-0.766 2.016,-1.032c0.734,-0.265 1.554,-0.398 2.461,-0.398c1.5,0 2.656,0.164 3.468,0.492c0.813,0.328 1.407,0.727 1.782,1.196c0.375,0.468 0.593,0.96 0.656,1.476c0.062,0.516 0.094,0.961 0.094,1.336c0,0.75 -0.297,1.578 -0.891,2.484c-0.594,0.907 -1.25,1.782 -1.969,2.625c-0.718,0.844 -1.398,1.618 -2.039,2.321c-0.64,0.703 -1.008,1.226 -1.101,1.57c0,0.969 0.07,1.852 0.211,2.648c0.14,0.797 0.328,1.579 0.562,2.344c0.235,0.766 0.477,1.578 0.727,2.438c0.25,0.859 0.492,1.851 0.726,2.976c0.235,1.125 0.422,2.422 0.563,3.891c0.14,1.469 0.211,3.203 0.211,5.203c1.125,-0.75 2.336,-1.43 3.633,-2.039c1.296,-0.609 2.648,-1.242 4.054,-1.898c1.406,-0.657 2.852,-1.383 4.336,-2.18c1.485,-0.797 2.977,-1.758 4.477,-2.883l0.047,10.5c-1.938,1.5 -4.18,2.906 -6.727,4.219c-2.547,1.312 -5.219,2.469 -8.016,3.469c-2.796,1 -5.625,1.789 -8.484,2.367c-2.859,0.578 -5.57,0.867 -8.133,0.867c-1.844,0 -3.562,-0.172 -5.156,-0.516c-1.594,-0.343 -2.992,-0.883 -4.195,-1.617c-1.203,-0.734 -2.18,-1.695 -2.93,-2.883c-0.75,-1.187 -1.203,-2.625 -1.359,-4.312c-0.438,0.094 -0.868,0.156 -1.289,0.187c-0.422,0.032 -0.836,0.047 -1.243,0.047c-0.5,0 -0.968,-0.015 -1.406,-0.047c-0.437,-0.031 -0.812,-0.148 -1.125,-0.351c-0.312,-0.203 -0.562,-0.532 -0.75,-0.985c-0.187,-0.453 -0.281,-1.101 -0.281,-1.945c0,-0.75 0.187,-1.445 0.562,-2.086c0.375,-0.641 0.813,-1.211 1.313,-1.711c0.5,-0.5 1,-0.937 1.5,-1.312c0.5,-0.375 0.875,-0.672 1.125,-0.891ZM19.279,86.25c0.375,0 0.789,0.234 1.242,0.703c0.453,0.469 0.977,0.985 1.57,1.547c0.594,0.563 1.282,1.078 2.063,1.547c0.781,0.469 1.672,0.703 2.672,0.703c1.218,0 2.226,-0.203 3.023,-0.609c0.797,-0.407 1.43,-0.946 1.899,-1.618c0.468,-0.671 0.796,-1.453 0.984,-2.343c0.187,-0.891 0.281,-1.821 0.281,-2.789c0,-0.844 -0.054,-1.703 -0.164,-2.578c-0.109,-0.875 -0.25,-1.711 -0.422,-2.508c-0.172,-0.797 -0.359,-1.547 -0.562,-2.25c-0.203,-0.703 -0.383,-1.305 -0.539,-1.805l-12.047,12Z" style="fill:#4281f3;fill-rule:nonzero;"/><path d="M74.451,89.906c3.156,0 6.031,-0.312 8.625,-0.937c2.593,-0.625 4.945,-1.469 7.054,-2.531c2.11,-1.063 4.016,-2.305 5.719,-3.727c1.703,-1.422 3.242,-2.945 4.617,-4.57l0.516,10.734c-1,1.219 -2.211,2.398 -3.633,3.539c-1.422,1.141 -2.976,2.141 -4.664,3c-1.687,0.859 -3.461,1.547 -5.32,2.063c-1.86,0.515 -3.696,0.773 -5.508,0.773c-0.219,0 -0.492,-0.031 -0.82,-0.094c-0.328,-0.062 -0.899,-0.172 -1.711,-0.328c-0.813,-0.156 -1.977,-0.367 -3.492,-0.633c-1.516,-0.265 -3.571,-0.586 -6.165,-0.961l0,0.844c0,5.688 -0.476,10.852 -1.429,15.492c-0.953,4.641 -2.227,8.602 -3.821,11.883c-1.593,3.281 -3.421,5.813 -5.484,7.594c-2.062,1.781 -4.203,2.672 -6.422,2.672c-1.781,0 -3.265,-0.438 -4.453,-1.313c-1.187,-0.875 -2.133,-2.054 -2.836,-3.539c-0.703,-1.484 -1.203,-3.219 -1.5,-5.203c-0.297,-1.984 -0.445,-4.086 -0.445,-6.305c0,-1.281 0.203,-2.726 0.609,-4.336c0.406,-1.609 0.953,-3.296 1.641,-5.062c0.687,-1.766 1.461,-3.563 2.32,-5.391c0.86,-1.828 1.742,-3.601 2.649,-5.32c2.125,-4 4.546,-8.125 7.265,-12.375c0.344,-2.437 0.696,-4.937 1.055,-7.5c0.359,-2.562 0.812,-5.047 1.359,-7.453c0.547,-2.406 1.235,-4.688 2.063,-6.844c0.828,-2.156 1.89,-4.031 3.187,-5.625c1.297,-1.594 2.852,-2.859 4.664,-3.797c1.813,-0.937 4,-1.406 6.563,-1.406c1.906,0 3.687,0.258 5.344,0.773c1.656,0.516 3.109,1.352 4.359,2.508c1.25,1.157 2.234,2.649 2.953,4.477c0.719,1.828 1.078,4.07 1.078,6.726c0,2.125 -0.312,4.18 -0.937,6.164c-0.625,1.985 -1.602,3.883 -2.93,5.696c-1.328,1.812 -3.016,3.508 -5.062,5.086c-2.047,1.578 -4.477,2.992 -7.29,4.242l0.282,0.984ZM68.544,85.172c1.875,-0.938 3.493,-1.984 4.852,-3.141c1.359,-1.156 2.531,-2.39 3.516,-3.703c0.984,-1.312 1.789,-2.672 2.414,-4.078c0.625,-1.406 1.125,-2.844 1.5,-4.312c0.156,-0.688 0.258,-1.493 0.304,-2.415c0.047,-0.921 -0.046,-1.789 -0.281,-2.601c-0.234,-0.813 -0.64,-1.508 -1.219,-2.086c-0.578,-0.578 -1.382,-0.867 -2.414,-0.867c-1.156,0 -2.172,0.32 -3.047,0.961c-0.875,0.64 -1.632,1.508 -2.273,2.601c-0.641,1.094 -1.172,2.391 -1.594,3.891c-0.422,1.5 -0.765,3.109 -1.031,4.828c-0.266,1.719 -0.453,3.508 -0.562,5.367c-0.11,1.86 -0.165,3.711 -0.165,5.555ZM52.232,118.922c0,0.25 0.055,0.656 0.164,1.219c0.109,0.562 0.289,1.125 0.539,1.687c0.25,0.563 0.578,1.063 0.984,1.5c0.407,0.438 0.907,0.656 1.5,0.656c0.532,0 0.969,-0.289 1.313,-0.867c0.344,-0.578 0.625,-1.351 0.844,-2.32c0.218,-0.969 0.375,-2.063 0.468,-3.281c0.094,-1.219 0.172,-2.469 0.235,-3.75c0.062,-1.282 0.101,-2.532 0.117,-3.75c0.016,-1.219 0.055,-2.313 0.117,-3.282c0.094,-1.687 0.164,-3.117 0.211,-4.289c0.047,-1.172 0.086,-2.148 0.117,-2.929c0.032,-0.875 0.063,-1.61 0.094,-2.203c-0.594,1.031 -1.172,2.226 -1.734,3.585c-0.563,1.36 -1.094,2.774 -1.594,4.243c-0.5,1.468 -0.953,2.937 -1.359,4.406c-0.407,1.469 -0.758,2.836 -1.055,4.101c-0.297,1.266 -0.531,2.36 -0.703,3.282c-0.172,0.922 -0.258,1.586 -0.258,1.992Z" style="fill:#4281f3;fill-rule:nonzero;"/><path d="M111.201,98.25c-2.938,0 -5.508,-0.531 -7.711,-1.594c-2.203,-1.062 -4.039,-2.492 -5.508,-4.289c-1.469,-1.797 -2.57,-3.875 -3.305,-6.234c-0.734,-2.36 -1.101,-4.836 -1.101,-7.43c0,-1.75 0.172,-3.601 0.515,-5.555c0.344,-1.953 0.868,-3.867 1.571,-5.742c0.703,-1.875 1.586,-3.664 2.648,-5.367c1.063,-1.703 2.305,-3.203 3.727,-4.5c1.422,-1.297 3.015,-2.328 4.781,-3.094c1.766,-0.765 3.726,-1.148 5.883,-1.148c1.75,0 3.375,0.281 4.875,0.844c1.5,0.562 2.804,1.351 3.914,2.367c1.109,1.015 1.976,2.242 2.601,3.68c0.625,1.437 0.938,3.046 0.938,4.828c0,1.937 -0.477,3.875 -1.43,5.812c-0.953,1.938 -2.273,3.766 -3.961,5.485c-1.687,1.718 -3.695,3.25 -6.023,4.593c-2.328,1.344 -4.852,2.391 -7.571,3.141c0.469,0.844 0.93,1.547 1.383,2.109c0.453,0.563 0.914,1 1.383,1.313c0.469,0.312 0.961,0.531 1.477,0.656c0.515,0.125 1.07,0.188 1.664,0.188c1.875,0 3.851,-0.375 5.929,-1.125c2.079,-0.75 4.102,-1.688 6.071,-2.813c1.968,-1.125 3.828,-2.352 5.578,-3.68c1.75,-1.328 3.234,-2.586 4.453,-3.773l6.047,6.281c-2.75,2.844 -5.672,5.36 -8.766,7.547c-1.344,0.938 -2.789,1.859 -4.336,2.766c-1.547,0.906 -3.172,1.711 -4.875,2.414c-1.703,0.703 -3.468,1.265 -5.297,1.687c-1.828,0.422 -3.679,0.633 -5.554,0.633ZM104.966,76.219c1.125,0 2.352,-0.289 3.68,-0.867c1.328,-0.579 2.563,-1.321 3.703,-2.227c1.141,-0.906 2.102,-1.891 2.883,-2.953c0.781,-1.063 1.172,-2.094 1.172,-3.094c0,-1.406 -0.258,-2.562 -0.774,-3.469c-0.515,-0.906 -1.148,-1.359 -1.898,-1.359c-1.344,0 -2.492,0.25 -3.445,0.75c-0.953,0.5 -1.75,1.148 -2.391,1.945c-0.641,0.797 -1.156,1.703 -1.547,2.719c-0.39,1.016 -0.687,2.039 -0.89,3.07c-0.204,1.032 -0.336,2.032 -0.399,3c-0.062,0.969 -0.094,1.797 -0.094,2.485Z" style="fill:#4281f3;fill-rule:nonzero;"/><path d="M146.732,98.25c-2.875,0 -5.398,-0.531 -7.57,-1.594c-2.172,-1.062 -3.993,-2.484 -5.461,-4.265c-1.469,-1.782 -2.578,-3.844 -3.328,-6.188c-0.75,-2.344 -1.125,-4.781 -1.125,-7.312c0,-1.813 0.187,-3.703 0.562,-5.672c0.375,-1.969 0.93,-3.899 1.664,-5.789c0.735,-1.891 1.641,-3.696 2.719,-5.414c1.078,-1.719 2.328,-3.227 3.75,-4.524c1.422,-1.297 3.008,-2.328 4.758,-3.094c1.75,-0.765 3.672,-1.148 5.765,-1.148c1.782,0 3.43,0.273 4.946,0.82c1.515,0.547 2.812,1.305 3.89,2.274c1.078,0.969 1.922,2.117 2.532,3.445c0.609,1.328 0.914,2.758 0.914,4.289c0,1.063 -0.141,2.11 -0.422,3.141c-0.282,1.031 -0.696,1.961 -1.242,2.789c-0.547,0.828 -1.211,1.492 -1.993,1.992c-0.781,0.5 -1.656,0.75 -2.625,0.75c-1.468,0 -2.429,-0.391 -2.882,-1.172c-0.454,-0.781 -0.68,-1.859 -0.68,-3.234c0,-0.563 0.023,-1.156 0.07,-1.781c0.047,-0.625 0.07,-1.188 0.07,-1.688c0,-0.75 -0.078,-1.375 -0.234,-1.875c-0.156,-0.5 -0.5,-0.75 -1.031,-0.75c-1.281,0 -2.375,0.305 -3.281,0.914c-0.907,0.609 -1.68,1.406 -2.321,2.391c-0.64,0.984 -1.148,2.093 -1.523,3.328c-0.375,1.234 -0.672,2.461 -0.891,3.68c-0.219,1.218 -0.359,2.382 -0.422,3.492c-0.062,1.109 -0.093,2.039 -0.093,2.789c0,1.125 0.101,2.297 0.304,3.515c0.203,1.219 0.586,2.336 1.149,3.352c0.562,1.016 1.328,1.859 2.297,2.531c0.968,0.672 2.218,1.008 3.75,1.008c1.5,0 3.156,-0.461 4.968,-1.383c1.813,-0.922 3.633,-2.086 5.461,-3.492c1.828,-1.406 3.571,-2.953 5.227,-4.641c1.656,-1.687 3.078,-3.281 4.265,-4.781l3.235,5.438c-2.344,3.343 -4.875,6.328 -7.594,8.953c-1.156,1.125 -2.414,2.219 -3.773,3.281c-1.36,1.063 -2.782,2.008 -4.266,2.836c-1.484,0.828 -3.031,1.5 -4.641,2.016c-1.609,0.515 -3.242,0.773 -4.898,0.773Z" style="fill:#4281f3;fill-rule:nonzero;"/><path d="M205.748,87.75c-3,1.75 -5.672,3.281 -8.016,4.594c-2.344,1.312 -4.43,2.406 -6.258,3.281c-1.828,0.875 -3.453,1.531 -4.875,1.969c-1.422,0.437 -2.711,0.656 -3.867,0.656c-2.375,0 -4.469,-0.719 -6.281,-2.156c-1.813,-1.438 -3.328,-3.508 -4.547,-6.211c-1.219,-2.703 -2.133,-5.977 -2.742,-9.82c-0.61,-3.844 -0.914,-8.172 -0.914,-12.985c0,-1.875 0.078,-3.875 0.234,-6c0.156,-2.125 0.375,-4.234 0.656,-6.328c-0.937,-0.125 -1.664,-0.242 -2.179,-0.352c-0.516,-0.109 -1.063,-0.218 -1.641,-0.328c-0.578,-0.109 -1.313,-0.226 -2.203,-0.351c-0.891,-0.125 -2.18,-0.281 -3.867,-0.469c-0.75,-0.094 -1.329,-0.273 -1.735,-0.539c-0.406,-0.266 -0.703,-0.578 -0.89,-0.938c-0.188,-0.359 -0.297,-0.734 -0.329,-1.125c-0.031,-0.39 -0.046,-0.726 -0.046,-1.007c0,-0.625 0.304,-1.102 0.914,-1.43c0.609,-0.328 1.39,-0.57 2.343,-0.727c0.954,-0.156 2,-0.242 3.141,-0.257c1.141,-0.016 2.234,-0.008 3.281,0.023c1.047,0.031 1.985,0.055 2.813,0.07c0.828,0.016 1.398,-0.007 1.711,-0.07c0.843,-4.219 1.914,-8.305 3.211,-12.258c1.297,-3.953 2.75,-7.469 4.359,-10.547c1.609,-3.078 3.367,-5.547 5.273,-7.406c1.907,-1.859 3.907,-2.789 6,-2.789c1.344,0 2.571,0.375 3.68,1.125c1.11,0.75 2.055,1.75 2.836,3c0.781,1.25 1.383,2.711 1.805,4.383c0.422,1.672 0.633,3.414 0.633,5.226c0,1.532 -0.219,3.149 -0.657,4.852c-0.437,1.703 -1.031,3.437 -1.781,5.203c-0.75,1.766 -1.633,3.555 -2.648,5.367c-1.016,1.813 -2.086,3.61 -3.211,5.391c0.281,0.031 0.75,0.055 1.406,0.07c0.656,0.016 1.414,0.039 2.273,0.071c0.86,0.031 1.789,0.07 2.789,0.117c1,0.047 1.969,0.086 2.907,0.117c0.937,0.031 1.812,0.062 2.625,0.094c0.812,0.031 1.484,0.062 2.015,0.093c0.625,0.032 1.078,0.344 1.36,0.938c0.281,0.594 0.422,1.344 0.422,2.25c0,1.094 -0.313,1.984 -0.938,2.672c-0.625,0.687 -1.312,1.031 -2.062,1.031l-18,0c-0.907,1.25 -1.821,2.477 -2.743,3.68c-0.921,1.203 -1.773,2.289 -2.554,3.258c-0.125,1.937 -0.235,3.843 -0.328,5.718c-0.032,0.813 -0.063,1.649 -0.094,2.508c-0.031,0.859 -0.063,1.711 -0.094,2.555c-0.031,0.844 -0.055,1.656 -0.07,2.437c-0.016,0.782 -0.024,1.5 -0.024,2.157c0,1.687 0.157,3.109 0.469,4.265c0.313,1.156 0.766,2.102 1.359,2.836c0.594,0.734 1.321,1.266 2.18,1.594c0.86,0.328 1.82,0.492 2.883,0.492c0.656,0 1.477,-0.156 2.461,-0.469c0.984,-0.312 2.062,-0.742 3.234,-1.289c1.172,-0.547 2.407,-1.195 3.703,-1.945c1.297,-0.75 2.579,-1.57 3.844,-2.461c1.266,-0.891 2.477,-1.828 3.633,-2.813c1.156,-0.984 2.203,-1.992 3.141,-3.023l0,12ZM190.748,28.406c0,-0.343 -0.024,-0.726 -0.071,-1.148c-0.047,-0.422 -0.148,-0.82 -0.304,-1.195c-0.157,-0.375 -0.399,-0.688 -0.727,-0.938c-0.328,-0.25 -0.789,-0.375 -1.383,-0.375c-0.812,0 -1.633,0.719 -2.461,2.156c-0.828,1.438 -1.625,3.274 -2.39,5.508c-0.766,2.234 -1.485,4.695 -2.157,7.383c-0.671,2.687 -1.289,5.297 -1.851,7.828c0.469,0.063 0.937,0.117 1.406,0.164c0.469,0.047 0.953,0.102 1.453,0.164c0.938,-1.594 1.914,-3.32 2.93,-5.18c1.016,-1.859 1.93,-3.687 2.742,-5.484c0.813,-1.797 1.484,-3.476 2.016,-5.039c0.531,-1.562 0.797,-2.844 0.797,-3.844Z" style="fill:#4281f3;fill-rule:nonzero;"/><path d="M204.294,88.453c0,-1.375 0.079,-2.976 0.235,-4.805c0.156,-1.828 0.367,-3.757 0.633,-5.789c0.265,-2.031 0.578,-4.101 0.937,-6.211c0.36,-2.109 0.742,-4.117 1.149,-6.023c0.406,-1.906 0.812,-3.656 1.218,-5.25c0.407,-1.594 0.813,-2.906 1.219,-3.937c0.25,-0.688 0.5,-1.235 0.75,-1.641c0.25,-0.406 0.539,-0.727 0.867,-0.961c0.328,-0.234 0.735,-0.391 1.219,-0.469c0.484,-0.078 1.086,-0.117 1.805,-0.117c0.812,0 1.445,0.039 1.898,0.117c0.453,0.078 0.789,0.266 1.008,0.563c0.219,0.297 0.352,0.726 0.398,1.289c0.047,0.562 0.071,1.328 0.071,2.297c0,1.156 0,2.554 0,4.195c0,1.641 0.031,3.258 0.093,4.852l0.516,0c0.625,-1.25 1.328,-2.649 2.109,-4.196c0.782,-1.547 1.688,-2.992 2.719,-4.336c1.031,-1.343 2.203,-2.476 3.516,-3.398c1.312,-0.922 2.828,-1.383 4.547,-1.383c0.593,0 1.172,0.102 1.734,0.305c0.563,0.203 1.055,0.492 1.477,0.867c0.422,0.375 0.757,0.836 1.007,1.383c0.25,0.547 0.375,1.164 0.375,1.851c0,0.532 -0.078,1.274 -0.234,2.227c-0.156,0.953 -0.328,1.953 -0.516,3c-0.187,1.047 -0.359,2.062 -0.515,3.047c-0.156,0.984 -0.235,1.804 -0.235,2.461c0,1.125 0.11,2.062 0.329,2.812c0.218,0.75 0.507,1.352 0.867,1.805c0.359,0.453 0.765,0.773 1.219,0.961c0.453,0.187 0.929,0.281 1.429,0.281c1.406,0 2.86,-0.312 4.36,-0.937c1.5,-0.625 2.875,-1.329 4.125,-2.11c1.468,-0.906 2.906,-1.937 4.312,-3.094l-0.703,10.969c-0.813,0.531 -1.734,1.125 -2.766,1.781c-1.031,0.657 -2.132,1.274 -3.304,1.852c-1.172,0.578 -2.391,1.062 -3.657,1.453c-1.265,0.391 -2.554,0.586 -3.867,0.586c-2.344,0 -4.234,-0.477 -5.672,-1.43c-1.437,-0.953 -2.578,-2.203 -3.422,-3.75c-0.843,-1.547 -1.468,-3.281 -1.875,-5.203c-0.406,-1.922 -0.734,-3.867 -0.984,-5.836l-0.75,0l-8.391,23.391c-0.437,1.219 -0.851,2.226 -1.242,3.023c-0.39,0.797 -0.789,1.446 -1.195,1.946c-0.406,0.5 -0.844,0.851 -1.313,1.054c-0.468,0.203 -0.984,0.305 -1.546,0.305c-1.282,0 -2.313,-0.273 -3.094,-0.82c-0.781,-0.547 -1.383,-1.282 -1.805,-2.203c-0.422,-0.922 -0.703,-1.969 -0.844,-3.141c-0.14,-1.172 -0.211,-2.383 -0.211,-3.633Z" style="fill:#4281f3;fill-rule:nonzero;"/><path d="M273.576,63.141c0.906,1.812 1.586,3.726 2.039,5.742c0.453,2.015 0.679,3.945 0.679,5.789c0,1.844 -0.203,3.703 -0.609,5.578c-0.406,1.875 -0.992,3.688 -1.758,5.438c-0.765,1.75 -1.703,3.39 -2.812,4.921c-1.11,1.532 -2.375,2.86 -3.797,3.985c-1.422,1.125 -2.977,2.015 -4.664,2.672c-1.688,0.656 -3.485,0.984 -5.391,0.984c-2.75,0 -5.101,-0.602 -7.054,-1.805c-1.954,-1.203 -3.555,-2.773 -4.805,-4.711c-1.25,-1.937 -2.164,-4.125 -2.742,-6.562c-0.578,-2.438 -0.868,-4.906 -0.868,-7.406c0,-3.438 0.516,-6.649 1.547,-9.633c1.032,-2.985 2.508,-5.578 4.43,-7.781c1.922,-2.204 4.273,-3.938 7.055,-5.204c2.781,-1.265 5.906,-1.898 9.375,-1.898c2.968,0 5.75,0.461 8.343,1.383c2.594,0.922 5.024,2.156 7.29,3.703c2.265,1.547 4.375,3.32 6.328,5.32c1.953,2 3.773,4.063 5.461,6.188l-0.891,6.609c-0.844,-1.125 -1.984,-2.344 -3.422,-3.656c-1.437,-1.313 -2.961,-2.594 -4.57,-3.844c-1.61,-1.25 -3.196,-2.43 -4.758,-3.539c-1.563,-1.109 -2.906,-2.039 -4.031,-2.789l-0.375,0.516ZM259.091,89.25c1.063,0 2.094,-0.539 3.094,-1.617c1,-1.078 1.875,-2.438 2.625,-4.078c0.75,-1.641 1.352,-3.453 1.805,-5.438c0.453,-1.984 0.679,-3.883 0.679,-5.695c0,-1.438 -0.109,-2.774 -0.328,-4.008c-0.218,-1.234 -0.547,-2.305 -0.984,-3.211c-0.438,-0.906 -1,-1.625 -1.688,-2.156c-0.687,-0.531 -1.515,-0.797 -2.484,-0.797c-1.281,0 -2.5,0.547 -3.656,1.641c-1.156,1.093 -2.172,2.492 -3.047,4.195c-0.875,1.703 -1.563,3.586 -2.063,5.648c-0.5,2.063 -0.75,4.047 -0.75,5.954c0,1.312 0.125,2.546 0.375,3.703c0.25,1.156 0.641,2.164 1.172,3.023c0.532,0.859 1.235,1.547 2.11,2.063c0.875,0.515 1.922,0.773 3.14,0.773Z" style="fill:#4281f3;fill-rule:nonzero;"/></g></g></svg>